<svg version="1.1" id="Layer_1" xmlns="http://www.w3.org/2000/svg" xmlns:xlink="http://www.w3.org/1999/xlink" x="0px" y="0px"
	 width="100%" viewBox="0 0 281 281" enable-background="new 0 0 281 281" xml:space="preserve">
<path fill="#000000" opacity="1.000000" stroke="none" 
	d="
M155.000000,282.000000 
	C103.333336,282.000000 52.166668,282.000000 1.000000,282.000000 
	C1.000000,188.333328 1.000000,94.666664 1.000000,1.000000 
	C94.666664,1.000000 188.333328,1.000000 282.000000,1.000000 
	C282.000000,94.666664 282.000000,188.333328 282.000000,282.000000 
	C239.833328,282.000000 197.666672,282.000000 155.000000,282.000000 
M175.820938,173.025116 
	C177.215240,173.074173 178.609543,173.123230 180.328842,173.777054 
	C182.820740,175.282791 185.248001,176.910339 187.815735,178.273209 
	C199.036514,184.228912 210.169571,190.460938 223.516525,190.009705 
	C238.651566,189.498016 247.402496,173.777740 240.754807,161.405975 
	C236.592056,153.658813 229.309784,149.864929 221.550949,147.077576 
	C209.144852,142.620728 196.140945,141.367279 183.011780,140.285416 
	C183.036255,139.879990 183.060730,139.474548 183.883545,138.983185 
	C184.793930,138.660416 185.680359,138.186386 186.618362,138.037766 
	C199.194611,136.044998 211.381027,132.656433 222.621780,126.646011 
	C230.742325,122.303947 237.867493,116.315155 238.861877,106.488007 
	C240.339325,91.886581 226.740005,81.686119 211.959946,85.459862 
	C200.668686,88.342819 191.231705,94.543510 182.135910,101.409645 
	C177.457870,104.940971 172.977997,108.734840 167.658615,113.013260 
	C168.079193,111.359245 168.102386,110.669884 168.409866,110.148010 
	C173.598953,101.340340 179.199158,92.749931 183.927917,83.703476 
	C188.144836,75.636208 190.170868,66.976105 189.121140,57.556778 
	C187.903976,46.634960 174.039536,39.042591 165.199677,41.628460 
	C153.383575,45.084949 149.546021,54.349640 146.146332,63.919548 
	C140.771744,79.048622 139.894852,94.972153 139.515533,111.004547 
	C139.515533,111.004547 139.101822,110.948250 139.014816,110.061470 
	C138.343185,104.885818 138.023254,99.634789 136.933090,94.548851 
	C133.834656,80.093597 130.425476,65.706009 120.951614,53.721634 
	C112.752869,43.350254 96.249268,40.912411 87.334183,54.124653 
	C83.019394,60.519211 83.585342,67.316330 85.658897,74.194832 
	C90.308159,89.617653 99.774696,101.966064 110.789070,113.318085 
	C112.000038,114.566185 113.020615,115.999016 114.079941,117.285957 
	C102.767349,111.069229 91.764275,104.964653 80.704651,98.964325 
	C72.723297,94.634102 63.963871,94.366318 55.293201,95.157921 
	C48.030010,95.821030 41.589756,104.434944 40.895515,111.656807 
	C39.758331,123.486320 46.472771,130.142471 55.705807,134.829773 
	C69.829063,141.999664 85.471657,142.521179 100.974815,144.658249 
	C100.937325,145.097809 100.899841,145.537384 100.022972,145.996643 
	C86.598358,147.759155 73.534950,151.157745 61.562229,157.382462 
	C52.884548,161.894043 45.212181,167.941376 44.779671,179.375610 
	C44.292721,192.248886 55.062973,201.279099 65.990616,199.727478 
	C84.626671,197.081390 99.101990,186.272446 112.740356,173.025421 
	C113.495338,173.074631 114.250313,173.123856 114.982750,173.877533 
	C112.557526,177.519485 109.965523,181.062592 107.737808,184.821594 
	C100.573692,196.910187 93.496071,209.083054 94.022575,223.860519 
	C94.305229,231.793640 97.915192,238.094971 105.083832,241.405487 
	C111.591995,244.411026 118.334305,244.157867 124.658653,239.898392 
	C132.195938,234.821945 135.364380,226.986252 137.922150,218.952332 
	C142.658127,204.076721 143.426727,188.669815 143.500214,173.044373 
	C143.668549,173.087326 143.836884,173.130264 144.001022,174.028107 
	C146.638168,186.222992 149.015457,198.481934 152.000214,210.591141 
	C154.130981,219.235779 158.339447,227.001877 164.814438,233.276276 
	C174.846191,242.997177 190.228134,240.354691 196.557098,229.789536 
	C200.509430,223.191788 199.575317,215.940186 197.407410,208.855164 
	C193.150131,194.941895 183.973145,184.120209 175.820938,173.025116 
z"/>
<path fill="#686DF4" opacity="1.000000" stroke="none" 
	d="
M139.924881,110.922379 
	C139.894852,94.972153 140.771744,79.048622 146.146332,63.919548 
	C149.546021,54.349640 153.383575,45.084949 165.199677,41.628460 
	C174.039536,39.042591 187.903976,46.634960 189.121140,57.556778 
	C190.170868,66.976105 188.144836,75.636208 183.927917,83.703476 
	C179.199158,92.749931 173.598953,101.340340 168.409866,110.148010 
	C168.102386,110.669884 168.079193,111.359245 167.658615,113.013260 
	C172.977997,108.734840 177.457870,104.940971 182.135910,101.409645 
	C191.231705,94.543510 200.668686,88.342819 211.959946,85.459862 
	C226.740005,81.686119 240.339325,91.886581 238.861877,106.488007 
	C237.867493,116.315155 230.742325,122.303947 222.621780,126.646011 
	C211.381027,132.656433 199.194611,136.044998 186.618362,138.037766 
	C185.680359,138.186386 184.793930,138.660416 183.231491,138.683716 
	C182.579437,133.465378 182.579437,128.546494 182.579437,124.063980 
	C181.342621,123.498459 181.052429,123.251884 180.759766,123.248909 
	C175.774323,123.198074 170.788605,123.169670 165.802902,123.151787 
	C156.265533,123.117577 157.927246,123.894844 155.304092,115.518311 
	C154.343887,112.452057 153.082504,111.206787 149.812637,111.396553 
	C146.536926,111.586655 143.222397,111.107948 139.924881,110.922379 
M165.211639,114.386993 
	C165.470230,114.706383 165.728821,115.025780 165.987396,115.345177 
	C165.947189,114.891731 165.906998,114.438286 165.211639,114.386993 
z"/>
<path fill="#686DF4" opacity="1.000000" stroke="none" 
	d="
M100.842949,144.007156 
	C85.471657,142.521179 69.829063,141.999664 55.705807,134.829773 
	C46.472771,130.142471 39.758331,123.486320 40.895515,111.656807 
	C41.589756,104.434944 48.030010,95.821030 55.293201,95.157921 
	C63.963871,94.366318 72.723297,94.634102 80.704651,98.964325 
	C91.764275,104.964653 102.767349,111.069229 114.079941,117.285957 
	C113.020615,115.999016 112.000038,114.566185 110.789070,113.318085 
	C99.774696,101.966064 90.308159,89.617653 85.658897,74.194832 
	C83.585342,67.316330 83.019394,60.519211 87.334183,54.124653 
	C96.249268,40.912411 112.752869,43.350254 120.951614,53.721634 
	C130.425476,65.706009 133.834656,80.093597 136.933090,94.548851 
	C138.023254,99.634789 138.343185,104.885818 138.651367,110.709885 
	C129.795471,111.680115 129.973404,111.753906 126.736900,119.558067 
	C126.076782,121.149803 123.577431,122.862473 121.834518,122.964951 
	C115.112312,123.360214 108.353058,123.125359 100.842949,123.125359 
	C100.842949,130.504242 100.842949,137.255692 100.842949,144.007156 
z"/>
<path fill="#FCCE05" opacity="1.000000" stroke="none" 
	d="
M100.908882,144.332703 
	C100.842949,137.255692 100.842949,130.504242 100.842949,123.125359 
	C108.353058,123.125359 115.112312,123.360214 121.834518,122.964951 
	C123.577431,122.862473 126.076782,121.149803 126.736900,119.558067 
	C129.973404,111.753906 129.795471,111.680115 138.694870,111.153275 
	C139.101822,110.948250 139.515533,111.004547 139.720215,110.963470 
	C143.222397,111.107948 146.536926,111.586655 149.812637,111.396553 
	C153.082504,111.206787 154.343887,112.452057 155.304092,115.518311 
	C157.927246,123.894844 156.265533,123.117577 165.802902,123.151787 
	C170.788605,123.169670 175.774323,123.198074 180.759766,123.248909 
	C181.052429,123.251884 181.342621,123.498459 182.579437,124.063980 
	C182.579437,128.546494 182.579437,133.465378 182.832321,138.726685 
	C183.060730,139.474548 183.036255,139.879990 182.711578,140.880280 
	C182.345520,150.705200 182.368179,159.937668 182.116684,169.162674 
	C182.079742,170.517410 180.740524,171.836624 180.003845,173.172272 
	C178.609543,173.123230 177.215240,173.074173 174.944305,173.028427 
	C164.046875,173.078888 154.026047,173.126053 144.005234,173.173218 
	C143.836884,173.130264 143.668549,173.087326 142.784103,173.038025 
	C133.047089,173.078796 124.026192,173.125931 115.005295,173.173065 
	C114.250313,173.123856 113.495338,173.074631 111.912872,173.028656 
	C107.852966,173.031906 104.620544,173.031906 100.862350,173.031906 
	C100.862350,163.482803 100.862350,154.729874 100.862350,145.976944 
	C100.899841,145.537384 100.937325,145.097809 100.908882,144.332703 
M122.711250,134.374832 
	C117.728485,143.664719 118.613625,153.687958 125.044914,160.801132 
	C131.427948,167.860931 141.472244,170.175446 150.137390,166.583221 
	C158.932907,162.936935 164.536758,154.161850 163.987534,144.895203 
	C163.431839,135.519257 157.410416,127.711563 148.521881,124.841568 
	C139.044861,121.781563 129.904678,124.964981 122.711250,134.374832 
M149.299896,119.055008 
	C148.534454,118.135056 147.826950,116.487312 146.993591,116.420982 
	C143.363434,116.132080 139.692856,116.214394 136.045959,116.371178 
	C135.161636,116.409187 134.311554,117.243515 133.445740,117.711678 
	C133.523499,118.296860 133.601257,118.882042 133.679016,119.467224 
	C138.636963,119.467224 143.594894,119.467224 149.299896,119.055008 
z"/>
<path fill="#686DF4" opacity="1.000000" stroke="none" 
	d="
M114.994019,173.525299 
	C124.026192,173.125931 133.047089,173.078796 142.531601,173.102417 
	C143.426727,188.669815 142.658127,204.076721 137.922150,218.952332 
	C135.364380,226.986252 132.195938,234.821945 124.658653,239.898392 
	C118.334305,244.157867 111.591995,244.411026 105.083832,241.405487 
	C97.915192,238.094971 94.305229,231.793640 94.022575,223.860519 
	C93.496071,209.083054 100.573692,196.910187 107.737808,184.821594 
	C109.965523,181.062592 112.557526,177.519485 114.994019,173.525299 
z"/>
<path fill="#686DF4" opacity="1.000000" stroke="none" 
	d="
M144.003128,173.600662 
	C154.026047,173.126053 164.046875,173.078888 174.531250,173.102432 
	C183.973145,184.120209 193.150131,194.941895 197.407410,208.855164 
	C199.575317,215.940186 200.509430,223.191788 196.557098,229.789536 
	C190.228134,240.354691 174.846191,242.997177 164.814438,233.276276 
	C158.339447,227.001877 154.130981,219.235779 152.000214,210.591141 
	C149.015457,198.481934 146.638168,186.222992 144.003128,173.600662 
z"/>
<path fill="#696DF3" opacity="1.000000" stroke="none" 
	d="
M180.166351,173.474670 
	C180.740524,171.836624 182.079742,170.517410 182.116684,169.162674 
	C182.368179,159.937668 182.345520,150.705200 182.731171,141.184708 
	C196.140945,141.367279 209.144852,142.620728 221.550949,147.077576 
	C229.309784,149.864929 236.592056,153.658813 240.754807,161.405975 
	C247.402496,173.777740 238.651566,189.498016 223.516525,190.009705 
	C210.169571,190.460938 199.036514,184.228912 187.815735,178.273209 
	C185.248001,176.910339 182.820740,175.282791 180.166351,173.474670 
z"/>
<path fill="#686DF4" opacity="1.000000" stroke="none" 
	d="
M100.442657,145.986786 
	C100.862350,154.729874 100.862350,163.482803 100.862350,173.031906 
	C104.620544,173.031906 107.852966,173.031906 111.540176,173.102570 
	C99.101990,186.272446 84.626671,197.081390 65.990616,199.727478 
	C55.062973,201.279099 44.292721,192.248886 44.779671,179.375610 
	C45.212181,167.941376 52.884548,161.894043 61.562229,157.382462 
	C73.534950,151.157745 86.598358,147.759155 100.442657,145.986786 
z"/>
<path fill="#000000" opacity="1.000000" stroke="none" 
	d="
M165.539215,114.185913 
	C165.906998,114.438286 165.947189,114.891731 165.987396,115.345177 
	C165.728821,115.025780 165.470230,114.706383 165.539215,114.185913 
z"/>
<path fill="#7475E1" opacity="1.000000" stroke="none" 
	d="
M122.879585,134.044342 
	C129.904678,124.964981 139.044861,121.781563 148.521881,124.841568 
	C157.410416,127.711563 163.431839,135.519257 163.987534,144.895203 
	C164.536758,154.161850 158.932907,162.936935 150.137390,166.583221 
	C141.472244,170.175446 131.427948,167.860931 125.044914,160.801132 
	C118.613625,153.687958 117.728485,143.664719 122.879585,134.044342 
M159.776794,139.150009 
	C159.072205,137.833771 158.473557,136.446411 157.645645,135.212967 
	C152.677979,127.811897 143.087128,124.835243 134.724777,128.040558 
	C126.727966,131.105743 121.486328,139.503448 122.458778,147.692047 
	C123.857536,159.470337 134.072128,167.175034 145.378967,164.980362 
	C156.813309,162.760941 163.091492,151.995300 159.776794,139.150009 
z"/>
<path fill="#8C84BA" opacity="1.000000" stroke="none" 
	d="
M148.926361,119.261116 
	C143.594894,119.467224 138.636963,119.467224 133.679016,119.467224 
	C133.601257,118.882042 133.523499,118.296860 133.445740,117.711678 
	C134.311554,117.243515 135.161636,116.409187 136.045959,116.371178 
	C139.692856,116.214394 143.363434,116.132080 146.993591,116.420982 
	C147.826950,116.487312 148.534454,118.135056 148.926361,119.261116 
z"/>
<path fill="#F6CA0F" opacity="1.000000" stroke="none" 
	d="
M159.885406,139.534515 
	C163.091492,151.995300 156.813309,162.760941 145.378967,164.980362 
	C134.072128,167.175034 123.857536,159.470337 122.458778,147.692047 
	C121.486328,139.503448 126.727966,131.105743 134.724777,128.040558 
	C143.087128,124.835243 152.677979,127.811897 157.645645,135.212967 
	C158.473557,136.446411 159.072205,137.833771 159.885406,139.534515 
M130.361313,134.885300 
	C125.498062,140.017258 124.522552,146.025650 127.190346,152.353653 
	C129.620468,158.117920 134.289169,161.447479 140.626434,161.933960 
	C147.531082,162.464020 154.275635,158.037109 156.666428,151.649628 
	C159.183502,144.924774 156.861618,137.358444 150.960510,133.055664 
	C144.765915,128.538940 137.833633,128.994659 130.361313,134.885300 
z"/>
<path fill="#7575E0" opacity="1.000000" stroke="none" 
	d="
M130.630981,134.629852 
	C137.833633,128.994659 144.765915,128.538940 150.960510,133.055664 
	C156.861618,137.358444 159.183502,144.924774 156.666428,151.649628 
	C154.275635,158.037109 147.531082,162.464020 140.626434,161.933960 
	C134.289169,161.447479 129.620468,158.117920 127.190346,152.353653 
	C124.522552,146.025650 125.498062,140.017258 130.630981,134.629852 
M138.306305,158.643555 
	C147.630630,161.251724 156.164337,152.897171 154.617706,143.997070 
	C153.528366,137.728485 148.311752,133.219086 142.136093,133.039978 
	C136.126846,132.865692 130.548416,137.033310 129.149048,142.742508 
	C127.513649,149.414642 130.519653,154.985687 138.306305,158.643555 
z"/>
<path fill="#FCCE05" opacity="1.000000" stroke="none" 
	d="
M137.935211,158.490875 
	C130.519653,154.985687 127.513649,149.414642 129.149048,142.742508 
	C130.548416,137.033310 136.126846,132.865692 142.136093,133.039978 
	C148.311752,133.219086 153.528366,137.728485 154.617706,143.997070 
	C156.164337,152.897171 147.630630,161.251724 137.935211,158.490875 
z"/>
</svg>